<?xml version="1.0" encoding="utf-8"?>
<!-- Generator: Adobe Illustrator 16.0.0, SVG Export Plug-In . SVG Version: 6.00 Build 0)  -->
<!DOCTYPE svg PUBLIC "-//W3C//DTD SVG 1.0//EN" "http://www.w3.org/TR/2001/REC-SVG-20010904/DTD/svg10.dtd">
<svg version="1.0" id="Calque_1" xmlns="http://www.w3.org/2000/svg" xmlns:xlink="http://www.w3.org/1999/xlink" x="0px" y="0px"
	 width="426.223px" height="512.566px" viewBox="0 0 426.223 512.566" enable-background="new 0 0 426.223 512.566"
	 xml:space="preserve">
<path fill="#BEC3D2" d="M269.644,88.977H156.582c-8.285,0-15-6.715-15-15V28.043C141.582,12.582,154.151,0,169.604,0h87.012
	c15.453,0,28.027,12.582,28.027,28.043v45.934C284.644,82.262,277.925,88.977,269.644,88.977L269.644,88.977z M171.582,58.977
	h83.063V30h-83.063V58.977z M256.617,30h0.008H256.617z M256.617,30"/>
<path fill="#BEC3D2" d="M381.69,122.664c-2.84-3.078-6.836-4.828-11.023-4.828H55.559c-4.188,0-8.188,1.75-11.028,4.828
	c-2.84,3.078-4.261,7.203-3.926,11.379l27.125,335.396C69.66,493.306,89.914,512,113.835,512h198.55
	c23.926,0,44.176-18.693,46.105-42.561l27.125-335.396C385.956,129.867,384.53,125.742,381.69,122.664L381.69,122.664z
	 M381.69,122.664"/>
<path fill="#DCE1EB" d="M55.559,117.836c-4.188,0-8.188,1.75-11.028,4.828c-2.84,3.078-4.261,7.203-3.926,11.379l27.125,335.396
	C69.66,493.306,89.914,512,113.835,512h99.277V117.836H55.559z M55.559,117.836"/>
<path fill="#DCE1EB" d="M171.582,58.977V30h41.531V0h-43.508c-15.453,0-28.023,12.582-28.023,28.043v45.934c0,8.285,6.715,15,15,15
	h56.531v-30H171.582z M171.582,58.977"/>
<path fill="none" stroke="#000000" stroke-width="2" stroke-miterlimit="10" d="M269.644,88.977H156.582c-8.285,0-15-6.715-15-15
	V28.043C141.582,12.582,154.151,0,169.604,0h87.012c15.453,0,28.027,12.582,28.027,28.043v45.934
	C284.644,82.262,277.925,88.977,269.644,88.977L269.644,88.977z M171.582,58.977h83.063V30h-83.063V58.977z M256.617,30h0.008
	H256.617z M256.617,30"/>
<path fill="none" stroke="#000000" stroke-width="2" stroke-miterlimit="10" d="M381.69,122.664
	c-2.84-3.078-6.836-4.828-11.023-4.828H55.559c-4.188,0-8.188,1.75-11.028,4.828c-2.84,3.078-4.261,7.203-3.926,11.379
	l27.125,335.396C69.66,493.306,89.914,512,113.835,512h198.55c23.926,0,44.176-18.693,46.105-42.561l27.125-335.396
	C385.956,129.867,384.53,125.742,381.69,122.664L381.69,122.664z M381.69,122.664"/>
<path fill="#DCE1EB" d="M425.452,128.086L405.815,69.23c-2.043-6.125-7.773-10.253-14.227-10.253H34.632
	c-6.453,0-12.188,4.128-14.227,10.253L0.77,128.086c-1.524,4.574-0.758,9.605,2.062,13.516c2.816,3.914,7.348,6.23,12.168,6.23
	h396.222c4.824,0,9.352-2.316,12.172-6.23C426.21,137.691,426.976,132.66,425.452,128.086L425.452,128.086z M425.452,128.086"/>
<path fill="#9196AA" stroke="#000000" stroke-width="2" stroke-miterlimit="10" d="M287.332,465.978
	c-0.262,0-0.523-0.004-0.793-0.021c-8.27-0.43-14.629-7.488-14.199-15.762l14.086-270.397c0.43-8.274,7.473-14.641,15.757-14.199
	c8.273,0.429,14.629,7.488,14.199,15.761L302.3,451.757C301.882,459.767,295.257,465.978,287.332,465.978L287.332,465.978z
	 M287.332,465.978"/>
<path fill="#BEC3D2" stroke="#000000" stroke-width="2" stroke-miterlimit="10" d="M139.555,465.978
	c-7.91,0-14.528-6.189-14.961-14.186l-14.754-270.397c-0.449-8.274,5.89-15.344,14.16-15.793c8.266-0.454,15.348,5.886,15.797,14.16
	l14.75,270.397c0.453,8.275-5.887,15.344-14.16,15.793C140.108,465.968,139.832,465.978,139.555,465.978L139.555,465.978z
	 M139.555,465.978"/>
<path fill="#9196AA" d="M213.276,465.978c-8.281,0-15-6.717-15-15v-270.4c0-8.285,6.719-15,15-15c8.286,0,15,6.715,15,15v270.4
	C228.277,459.261,221.562,465.978,213.276,465.978L213.276,465.978z M213.276,465.978"/>
<path fill="#BEC3D2" d="M198.276,180.578v270.4c0,8.225,6.629,14.9,14.836,14.99V165.586
	C204.905,165.676,198.276,172.348,198.276,180.578L198.276,180.578z M198.276,180.578"/>
<path fill="none" stroke="#000000" stroke-width="2" stroke-miterlimit="10" d="M213.276,465.978c-8.281,0-15-6.717-15-15v-270.4
	c0-8.285,6.719-15,15-15c8.286,0,15,6.715,15,15v270.4C228.277,459.261,221.562,465.978,213.276,465.978L213.276,465.978z
	 M213.276,465.978"/>
<path fill="#F2F6FC" d="M36.289,58.977c-6.453,0-12.187,4.128-14.23,10.253L2.425,128.086c-1.524,4.574-0.758,9.605,2.062,13.516
	c2.817,3.914,7.348,6.23,12.168,6.23h198.11V58.977H36.289z M36.289,58.977"/>
<path fill="none" stroke="#000000" stroke-width="2" stroke-miterlimit="10" d="M425.452,128.086L405.815,69.23
	c-2.043-6.125-7.773-10.253-14.227-10.253H34.632c-6.453,0-12.188,4.128-14.227,10.253L0.77,128.086
	c-1.524,4.574-0.758,9.605,2.062,13.516c2.816,3.914,7.348,6.23,12.168,6.23h396.222c4.824,0,9.352-2.316,12.172-6.23
	C426.21,137.691,426.976,132.66,425.452,128.086L425.452,128.086z M425.452,128.086"/>
</svg>
