<?xml version="1.0" encoding="utf-8"?>
<!-- Generator: Adobe Illustrator 16.0.0, SVG Export Plug-In . SVG Version: 6.00 Build 0)  -->
<!DOCTYPE svg PUBLIC "-//W3C//DTD SVG 1.0//EN" "http://www.w3.org/TR/2001/REC-SVG-20010904/DTD/svg10.dtd">
<svg version="1.0" id="Calque_1" xmlns="http://www.w3.org/2000/svg" xmlns:xlink="http://www.w3.org/1999/xlink" x="0px" y="0px"
	 width="426.223px" height="512.566px" viewBox="0 0 426.223 512.566" enable-background="new 0 0 426.223 512.566"
	 xml:space="preserve">
<path fill="#9196AA" stroke="#000000" stroke-width="3" stroke-miterlimit="10" d="M301.907,426.207H53.277
	C23.904,426.207,0,402.304,0,372.93V124.3c0-29.373,23.904-53.277,53.277-53.277h142.075c9.82,0,17.758,7.957,17.758,17.762
	c0,9.801-7.938,17.758-17.758,17.758H53.277c-9.804,0-17.758,7.974-17.758,17.758v248.63c0,9.784,7.954,17.758,17.758,17.758h248.63
	c9.801,0,17.758-7.974,17.758-17.758V230.855c0-9.801,7.938-17.759,17.758-17.759c9.821,0,17.762,7.958,17.762,17.759V372.93
	C355.185,402.304,331.28,426.207,301.907,426.207L301.907,426.207z M301.907,426.207"/>
<path fill="#DCE1EB" stroke="#000000" stroke-width="3" stroke-miterlimit="10" d="M307.022,56.409l-140.514,140.51
	c-1.243,1.242-2.079,2.823-2.432,4.527l-12.555,62.798c-0.586,2.911,0.338,5.912,2.432,8.026c1.688,1.688,3.96,2.592,6.289,2.592
	c0.566,0,1.154-0.053,1.74-0.176l62.779-12.555c1.74-0.358,3.32-1.191,4.546-2.437l140.51-140.511L307.022,56.409z M307.022,56.409"
	/>
<path fill="#DCE1EB" stroke="#000000" stroke-width="3" stroke-miterlimit="10" d="M413.22,12.988
	c-17.313-17.316-45.479-17.316-62.779,0l-24.577,24.577l62.779,62.779l24.577-24.58c8.383-8.364,13-19.517,13-31.38
	C426.22,32.521,421.603,21.368,413.22,12.988L413.22,12.988z M413.22,12.988"/>
</svg>
