<?xml version="1.0" encoding="utf-8"?>
<!-- Generator: Adobe Illustrator 16.0.0, SVG Export Plug-In . SVG Version: 6.00 Build 0)  -->
<!DOCTYPE svg PUBLIC "-//W3C//DTD SVG 1.0//EN" "http://www.w3.org/TR/2001/REC-SVG-20010904/DTD/svg10.dtd">
<svg version="1.0" id="Calque_1" xmlns="http://www.w3.org/2000/svg" xmlns:xlink="http://www.w3.org/1999/xlink" x="0px" y="0px"
	 width="426.223px" height="512.566px" viewBox="0 0 426.223 512.566" enable-background="new 0 0 426.223 512.566"
	 xml:space="preserve">
<g>
	<polygon fill="#9196AA" points="331.992,299.687 416.096,380.297 416.096,400.345 406.788,412.517 385.309,418.245 
		299.686,333.041 	"/>
	<circle fill="#DCE1EB" cx="166.493" cy="166.493" r="157.956"/>
	<circle fill="#FFFFFF" cx="166.492" cy="166.493" r="121.44"/>
	<g>
		<g>
			<path d="M258.063,158.168c-4.595,0-8.324,3.729-8.324,8.324s3.729,8.325,8.324,8.325c4.596,0,8.325-3.729,8.325-8.325
				S262.658,158.168,258.063,158.168z"/>
		</g>
	</g>
	<g>
		<g>
			<path d="M416.465,369.381L305.348,258.264c18.102-27.267,27.638-58.843,27.638-91.771C332.986,74.689,258.297,0,166.493,0
				S0,74.689,0,166.493c0,91.804,74.688,166.493,166.493,166.493c32.929,0,64.503-9.535,91.769-27.637l30.715,30.714
				c0.004,0.005,0.007,0.009,0.013,0.015l80.39,80.389c6.291,6.29,14.651,9.756,23.543,9.756s17.252-3.466,23.541-9.753
				c6.292-6.289,9.757-14.65,9.757-23.545C426.22,384.026,422.755,375.665,416.465,369.381z M254.348,287.806
				c0,0-0.002,0-0.003,0.001c-25.695,18.664-56.073,28.53-87.852,28.53c-82.624,0-149.844-67.221-149.844-149.844
				S83.869,16.649,166.493,16.649c82.623,0,149.842,67.22,149.842,149.843c0,31.779-9.865,62.158-28.529,87.854
				C278.468,267.211,267.211,278.469,254.348,287.806z M271.813,295.354c8.615-7.051,16.491-14.926,23.539-23.541l23.617,23.619
				c-7.182,8.476-15.063,16.357-23.539,23.538L271.813,295.354z M404.693,404.692c-3.146,3.148-7.327,4.879-11.771,4.879
				s-8.623-1.73-11.77-4.879l-73.919-73.918c8.431-7.234,16.305-15.109,23.539-23.539l73.922,73.92
				c3.145,3.143,4.877,7.321,4.877,11.769C409.572,397.37,407.839,401.548,404.693,404.692z"/>
		</g>
	</g>
	<g>
		<g>
			<path d="M166.493,33.298c-73.444,0-133.194,59.75-133.194,133.194s59.75,133.194,133.194,133.194
				c73.444,0,133.193-59.75,133.193-133.194S239.937,33.298,166.493,33.298z M166.493,283.038
				c-64.263,0-116.545-52.282-116.545-116.545c0-64.263,52.282-116.544,116.545-116.544c64.262,0,116.544,52.282,116.544,116.544
				C283.037,230.756,230.755,283.038,166.493,283.038z"/>
		</g>
	</g>
	<g>
		<g>
			<path d="M259.782,130.757c-7.168-18.657-19.649-34.608-36.096-46.129c-16.837-11.796-36.615-18.031-57.194-18.031
				c-4.597,0-8.325,3.728-8.325,8.325s3.729,8.325,8.325,8.325c34.213,0,65.458,21.492,77.748,53.483
				c1.272,3.31,4.427,5.341,7.773,5.341c0.992,0,2.002-0.179,2.983-0.556C259.289,139.866,261.431,135.05,259.782,130.757z"/>
		</g>
	</g>
</g>
</svg>
